<?xml version="1.0" encoding="iso-8859-1"?>
<!-- Generator: Adobe Illustrator 19.1.0, SVG Export Plug-In . SVG Version: 6.00 Build 0)  -->
<svg version="1.1" id="Capa_1" xmlns="http://www.w3.org/2000/svg" xmlns:xlink="http://www.w3.org/1999/xlink" x="0px" y="0px"
	 viewBox="0 0 289.739 289.739" style="enable-background:new 0 0 289.739 289.739;" xml:space="preserve">
<g>
	<path style="fill:#ffffff" d="M289.739,109.557c0-26.559-74.849-38.632-144.869-38.632S0,82.998,0,109.557l0,0v70.624
		c0,26.559,74.849,38.632,144.869,38.632s144.869-12.072,144.869-38.632V109.557L289.739,109.557z M144.869,82.998
		c85.714,0,132.797,17.505,132.797,26.559s-47.083,26.559-132.797,26.559S12.072,118.612,12.072,109.557
		S59.155,82.998,144.869,82.998z M144.869,207.344c-85.714,0-132.797-17.505-132.797-26.559v-53.722
		c24.145,15.091,79.678,22.334,132.797,22.334s108.652-7.244,132.797-22.334v53.722
		C277.666,189.839,230.584,207.344,144.869,207.344z"/>
</g>
<g>
</g>
<g>
</g>
<g>
</g>
<g>
</g>
<g>
</g>
<g>
</g>
<g>
</g>
<g>
</g>
<g>
</g>
<g>
</g>
<g>
</g>
<g>
</g>
<g>
</g>
<g>
</g>
<g>
</g>
</svg>
