<?xml version="1.0" encoding="iso-8859-1"?>
<!-- Generator: Adobe Illustrator 19.0.0, SVG Export Plug-In . SVG Version: 6.00 Build 0)  -->
<svg version="1.1" id="Layer_1" xmlns="http://www.w3.org/2000/svg" xmlns:xlink="http://www.w3.org/1999/xlink" x="0px" y="0px"
	 viewBox="0 0 511.996 511.996" style="enable-background:new 0 0 511.996 511.996;" xml:space="preserve">
<g>
	<g>
		<path style="fill:#ffffff" d="M448.001,447.996h-3.098l-47.688-74.188l69-69c2-2,3.128-4.705,3.128-7.529V129.383c0-2.828-1.128-5.539-3.128-7.539
			L347.501,3.122c-2-2-4.727-3.122-7.55-3.122H172.063c-2.828,0-5.549,1.122-7.549,3.122L45.8,121.844c-2,2-3.123,4.711-3.123,7.539
			v167.896c0,2.824,1.123,5.529,3.123,7.529l69,69l-47.687,74.188h-3.112c-17.638,0-31.995,14.344-31.995,32
			c0,17.646,14.357,32,31.995,32h64c17.657,0,32-14.354,32-32c0-12.912-7.657-24.039-18.672-29.098l19.779-30.785l3.407,3.412
			c2,2.01,4.721,3.127,7.549,3.127h167.888c2.823,0,5.55-1.117,7.55-3.127l3.401-3.412l19.784,30.785
			c-11.02,5.059-18.686,16.186-18.686,29.098c0,17.646,14.353,32,32,32h64c17.646,0,31.99-14.354,31.99-32
			C479.992,462.34,465.647,447.996,448.001,447.996z M394.217,346.652c0.295-1.734,0.451-3.5,0.451-5.314
			c0-17.656-14.354-31.998-32-31.998c-2.216,0-4.393,0.215-6.48,0.656l-38.216-59.451l121.873,50.48L394.217,346.652z
			 M448.001,281.309l-149.756-62.024c0.284-1.951,0.422-3.937,0.422-5.951c0-2.024-0.138-4.01-0.422-5.956l149.756-62.029V281.309z
			 M343.697,29.5l96.147,96.138l-149.764,62.039c-2.412-3.181-5.236-6.015-8.422-8.416L343.697,29.5z M324.001,21.333
			l-62.049,149.761c-1.937-0.274-3.922-0.432-5.951-0.432c-2.015,0-4,0.157-5.941,0.432l-62.03-149.761H324.001z M234.673,213.334
			c0-11.77,9.578-21.338,21.328-21.338c11.765,0,21.343,9.568,21.343,21.338c0,11.755-9.578,21.328-21.343,21.328
			C244.251,234.662,234.673,225.089,234.673,213.334z M279.746,309.428c-0.794-0.059-1.588-0.088-2.402-0.088
			c-8.186,0-15.671,3.088-21.343,8.156c-5.656-5.068-13.142-8.156-21.328-8.156c-0.813,0-1.608,0.029-2.407,0.088l23.735-36.932
			L279.746,309.428z M168.315,29.5l62.03,149.761c-3.172,2.401-6,5.235-8.407,8.416L72.176,125.638L168.315,29.5z M64.001,145.349
			l149.765,62.029c-0.265,1.946-0.422,3.932-0.422,5.956c0,2.015,0.157,4,0.422,5.951L64.001,281.309V145.349z M72.176,301.025
			l121.873-50.48l-38.221,59.451c-2.093-0.441-4.265-0.656-6.485-0.656c-17.637,0-32,14.342-32,31.998
			c0,1.814,0.157,3.58,0.456,5.314L72.176,301.025z M114.686,452.898c-2.108,3.284-2.265,7.442-0.387,10.873
			c1.857,3.42,5.451,5.568,9.357,5.568h4.344c5.892,0,10.672,4.773,10.672,10.656c0,5.873-4.78,10.646-10.672,10.646h-64
			c-5.873,0-10.652-4.773-10.652-10.646c0-5.883,4.779-10.656,10.652-10.656h8.94c3.623,0,7-1.863,8.966-4.912l142.81-222.143
			c4.848,5.24,11,9.265,17.922,11.554L114.686,452.898z M213.344,394.652c-5.892,0-10.671-4.783-10.671-10.656
			c0-5.883,4.779-10.656,10.671-10.656c5.873,0,10.657,4.773,10.657,10.656C224.001,389.869,219.217,394.652,213.344,394.652z
			 M234.673,351.996c-5.878,0-10.672-4.785-10.672-10.658c0-5.891,4.794-10.686,10.672-10.686c5.887,0,10.672,4.795,10.672,10.686
			C245.344,347.211,240.56,351.996,234.673,351.996z M256.001,394.652c-5.877,0-10.656-4.783-10.656-10.656
			c0-5.883,4.779-10.656,10.656-10.656c5.888,0,10.667,4.773,10.667,10.656C266.668,389.869,261.889,394.652,256.001,394.652z
			 M277.344,351.996c-5.892,0-10.676-4.785-10.676-10.658c0-5.891,4.784-10.686,10.676-10.686c5.873,0,10.657,4.795,10.657,10.686
			C288.001,347.211,283.217,351.996,277.344,351.996z M298.668,394.652c-5.873,0-10.667-4.783-10.667-10.656
			c0-5.883,4.794-10.656,10.667-10.656c5.893,0,10.677,4.773,10.677,10.656C309.345,389.869,304.561,394.652,298.668,394.652z
			 M448.001,490.643h-64c-5.883,0-10.657-4.773-10.657-10.646c0-5.883,4.774-10.656,10.657-10.656h4.353
			c3.911,0,7.5-2.148,9.362-5.568c1.873-3.432,1.717-7.59-0.392-10.873L269.374,253.84c6.921-2.289,13.078-6.313,17.94-11.554
			l142.795,222.142c1.971,3.049,5.344,4.912,8.971,4.912h8.922c5.882,0,10.666,4.773,10.666,10.656
			C458.668,485.869,453.884,490.643,448.001,490.643z"/>
	</g>
</g>
<g>
</g>
<g>
</g>
<g>
</g>
<g>
</g>
<g>
</g>
<g>
</g>
<g>
</g>
<g>
</g>
<g>
</g>
<g>
</g>
<g>
</g>
<g>
</g>
<g>
</g>
<g>
</g>
<g>
</g>
</svg>
